<svg width="26" height="20" viewBox="0 0 26 20" fill="none" xmlns="http://www.w3.org/2000/svg">
<path d="M13.7839 8.16359C13.5679 8.32499 13.3249 8.41914 13.0684 8.47295H13.0549C13.0144 8.47295 12.9739 8.4864 12.9334 8.4864C12.9199 8.4864 12.8929 8.4864 12.8794 8.4864C12.8524 8.4864 12.8254 8.4864 12.7984 8.4864C12.7714 8.4864 12.7444 8.4864 12.7174 8.4864C12.7039 8.4864 12.6769 8.4864 12.6634 8.4864C12.6229 8.4864 12.5824 8.47295 12.5418 8.47295H12.5283C12.2718 8.43259 12.0288 8.32499 11.8128 8.16359L0 0.698608V2.46061V5.76941V6.53609V16.7718C0 18.5608 1.44454 19.9999 3.24009 19.9999H22.3161C24.1117 19.9999 25.5562 18.5608 25.5562 16.7718V6.53609V5.76941V2.46061V0.698608L13.7839 8.16359Z" fill="#55569E"/>
</svg>
